<?xml version="1.0" standalone="no"?>
<!DOCTYPE svg PUBLIC "-//W3C//DTD SVG 20010904//EN"
 "http://www.w3.org/TR/2001/REC-SVG-20010904/DTD/svg10.dtd">
<svg version="1.0" xmlns="http://www.w3.org/2000/svg"
 width="348.000000pt" height="332.000000pt" viewBox="0 0 348.000000 332.000000"
 preserveAspectRatio="xMidYMid meet">

<g transform="translate(0.000000,332.000000) scale(0.100000,-0.100000)"
fill="#000000" stroke="none">
<path d="M1100 2640 c-24 -5 -28 -8 -12 -9 27 -1 28 -11 2 -53 -22 -36 -26
-53 -10 -43 20 12 9 -36 -12 -58 -29 -29 -80 -146 -71 -161 4 -6 -6 -3 -21 8
-16 10 -25 12 -21 5 5 -7 4 -10 -2 -6 -6 4 -14 28 -18 54 -4 31 -9 42 -15 33
-7 -12 -13 -12 -35 0 -21 11 -32 12 -57 2 l-31 -12 36 34 c20 19 37 41 37 49
0 14 28 37 44 37 3 0 6 -19 7 -42 l1 -43 12 57 c14 66 35 94 91 119 22 10 34
19 27 19 -14 0 -37 -9 -158 -66 -78 -37 -107 -70 -144 -164 -12 -30 -31 -70
-42 -89 -12 -18 -22 -43 -23 -55 -2 -12 -14 -39 -29 -60 -14 -21 -42 -88 -61
-149 -51 -156 -64 -181 -98 -185 -18 -2 -29 2 -33 13 -8 19 22 55 45 55 20 0
74 83 69 107 -2 12 -14 19 -38 21 -28 3 -39 -2 -56 -24 -14 -17 -28 -25 -37
-21 -33 13 -48 142 -25 218 13 44 12 45 -23 54 -24 6 -27 2 -44 -50 -15 -42
-21 -51 -27 -38 -4 11 -7 -3 -7 -34 -1 -54 -7 -63 -29 -41 -16 16 -15 44 3 72
9 13 13 30 10 38 -6 14 -46 38 -65 38 -13 0 -51 -66 -53 -91 -1 -13 -12 -33
-24 -45 -25 -25 -30 -63 -11 -82 9 -9 7 -13 -5 -18 -18 -7 -24 -68 -8 -78 5
-4 12 -24 16 -45 3 -22 13 -47 20 -58 8 -10 15 -34 15 -53 1 -66 28 -189 47
-214 21 -29 77 -58 97 -50 9 3 25 -11 45 -40 17 -25 36 -48 42 -52 6 -3 -6 17
-26 45 -34 46 -35 51 -16 51 12 0 28 -12 38 -27 9 -16 26 -39 37 -52 12 -13
16 -21 9 -17 -6 3 -14 2 -17 -3 -3 -5 29 -24 71 -41 98 -41 122 -57 135 -89
22 -60 40 -185 43 -306 1 -71 8 -143 14 -158 14 -36 14 -37 -4 -37 -8 0 -31
-17 -50 -37 l-35 -38 6 -81 c4 -55 3 -84 -5 -88 -19 -12 -12 -24 12 -19 21 4
21 3 -3 -11 -30 -18 -44 -20 -34 -5 4 6 -4 5 -17 -2 -13 -8 -40 -19 -59 -26
-30 -10 -20 -11 65 -6 75 5 103 10 112 22 7 9 11 21 8 27 -2 7 25 19 68 30 68
18 117 48 117 73 0 22 148 13 235 -15 57 -18 111 -27 185 -31 91 -4 110 -8
143 -30 20 -15 40 -37 43 -49 6 -23 10 -24 106 -24 63 0 97 4 93 10 -3 6 -12
10 -19 10 -7 0 -21 6 -31 14 -18 13 -18 14 3 43 18 25 33 32 104 47 362 79
545 171 671 341 32 43 73 89 89 102 41 30 102 113 146 198 34 64 37 77 37 155
0 87 -11 151 -23 134 -4 -5 -23 -21 -42 -35 -19 -15 -45 -35 -56 -45 -12 -11
-36 -30 -54 -44 -36 -28 -58 -46 -110 -93 -19 -18 -62 -54 -95 -80 -33 -26
-68 -55 -78 -63 -9 -7 -22 -14 -27 -14 -6 0 -10 -4 -10 -8 0 -4 -12 -15 -27
-24 -16 -9 -38 -26 -50 -38 -13 -11 -23 -17 -23 -13 0 4 -10 -3 -21 -17 -11
-14 -17 -19 -13 -11 4 8 -13 0 -38 -17 -34 -23 -48 -28 -57 -19 -6 6 -11 17
-11 24 0 7 -4 13 -10 13 -5 0 -7 8 -3 17 13 37 17 40 495 440 113 94 209 176
212 181 3 5 -13 102 -34 216 -44 225 -46 250 -28 308 14 47 56 97 67 79 5 -8
15 -9 32 -3 l24 9 -35 22 c-31 20 -44 22 -115 17 -201 -14 -342 -91 -462 -250
-170 -224 -213 -270 -283 -302 -80 -36 -89 -31 -129 78 -19 51 -38 97 -43 103
-4 5 -8 23 -8 40 0 16 -7 43 -15 59 -8 16 -15 40 -14 55 2 49 -14 150 -23 145
-5 -3 -6 7 -3 23 5 22 4 25 -5 13 -8 -12 -9 -6 -5 25 5 31 4 36 -5 25 -8 -12
-9 -9 -4 11 19 83 -151 215 -314 245 -42 7 -86 15 -97 18 -11 2 -36 0 -55 -4z
m152 -115 c28 -25 54 -45 58 -45 4 0 11 -15 15 -32 4 -18 8 -35 9 -38 1 -3 5
-11 10 -19 7 -11 6 -12 -5 -6 -12 8 -12 6 0 -8 7 -9 17 -14 22 -11 5 3 6 -2 3
-10 -5 -13 -16 -10 -62 17 -47 27 -67 32 -117 31 -33 0 -73 -4 -88 -8 l-29 -7
7 43 c4 24 14 57 22 73 41 81 81 86 155 20z m290 -80 c11 -21 8 -18 -32 30
-24 29 -24 29 -2 10 13 -11 28 -29 34 -40z m-698 -66 c-10 -12 -32 -28 -49
-36 -16 -8 -48 -32 -69 -52 -37 -34 -38 -34 -19 -6 25 36 55 64 107 98 45 30
59 28 30 -4z m404 5 c34 -10 26 -22 -15 -22 -21 0 -57 -5 -81 -10 -27 -6 -44
-6 -48 0 -7 11 -7 11 21 26 22 12 87 15 123 6z m-392 -140 c-3 -9 -6 -29 -6
-45 0 -27 -2 -29 -35 -26 -33 2 -35 4 -30 27 3 14 15 33 27 43 26 22 52 23 44
1z m287 -1 c16 -66 -11 -105 -52 -77 -27 20 -27 59 1 78 29 21 46 20 51 -1z
m-919 -23 c-10 -16 -20 -27 -22 -25 -5 5 26 55 34 55 3 0 -3 -13 -12 -30z
m-17 -96 c2 -7 -7 -25 -21 -40 -22 -26 -25 -27 -32 -11 -9 25 12 69 33 65 9
-2 18 -8 20 -14z m771 4 c-3 -7 -13 -15 -24 -17 -16 -3 -17 -1 -5 13 16 19 34
21 29 4z m-127 -44 c-18 -8 -43 -13 -55 -11 -14 2 -7 7 24 14 62 15 71 14 31
-3z m119 6 c11 -6 21 -27 25 -52 4 -24 15 -54 25 -68 43 -63 38 -70 -7 -7 -17
23 -31 55 -31 70 0 16 -7 36 -17 45 -16 16 -17 16 -6 -5 19 -38 14 -53 -19
-53 -17 0 -30 5 -30 13 0 6 -7 -1 -16 -18 -8 -16 -24 -41 -35 -55 -15 -19 -14
-13 5 21 14 25 26 57 26 70 0 44 37 62 80 39z m197 -16 c-3 -3 -12 -4 -19 -1
-8 3 -5 6 6 6 11 1 17 -2 13 -5z m56 -11 c-7 -2 -21 -2 -30 0 -10 3 -4 5 12 5
17 0 24 -2 18 -5z m-1053 -73 c0 -25 -18 -36 -26 -16 -8 21 3 49 16 41 5 -3
10 -15 10 -25z m109 -24 c-2 -2 -17 -6 -34 -10 -22 -5 -26 -4 -15 4 14 9 59
15 49 6z m478 -83 c-2 -16 -4 -3 -4 27 0 30 2 43 4 28 2 -16 2 -40 0 -55z
m-526 7 c26 -27 47 -50 46 -51 -52 -20 -107 24 -107 87 0 23 11 16 61 -36z
m1029 -5 c0 -8 -102 -57 -107 -51 -3 3 18 17 48 31 59 27 59 27 59 20z m-612
-53 c26 -9 47 -23 52 -36 11 -29 -8 -47 -24 -23 -6 10 -17 26 -24 35 -11 15
-11 15 -5 -2 7 -21 2 -19 -49 16 -31 22 -38 45 -10 33 9 -4 37 -15 60 -23z
m307 -12 c8 0 16 8 16 18 1 16 2 16 6 0 3 -12 15 -18 36 -19 l32 -1 -28 -8
c-16 -5 -35 -6 -43 -3 -8 3 -14 0 -14 -5 0 -6 19 -13 43 -15 23 -2 -5 -3 -63
-3 -58 0 -79 1 -47 3 31 2 57 7 57 11 0 4 -18 6 -39 4 -22 -2 -48 1 -58 7 -17
10 -17 10 0 11 9 0 17 5 17 11 0 8 4 8 15 -1 17 -14 35 -5 36 18 0 12 3 11 9
-5 5 -13 16 -23 25 -23z m270 -5 c-27 -6 -54 -9 -60 -6 -12 7 38 19 80 19 22
0 17 -3 -20 -13z m-82 -10 c1 -5 -6 -11 -15 -13 -11 -2 -18 3 -18 13 0 17 30
18 33 0z m-878 -33 c-3 -3 -11 0 -18 7 -9 10 -8 11 6 5 10 -3 15 -9 12 -12z
m972 -148 c15 -3 25 -15 32 -42 18 -64 17 -65 -41 -58 -61 8 -85 20 -92 43 -2
10 -7 28 -11 40 -5 17 -1 22 17 25 23 3 52 1 95 -8z m-952 -22 c-3 -3 -11 0
-18 7 -9 10 -8 11 6 5 10 -3 15 -9 12 -12z m805 -54 c134 -47 270 -53 350 -15
65 31 60 10 -5 -23 -42 -21 -63 -25 -130 -23 -85 1 -206 34 -275 74 -36 21
-32 20 60 -13z m-751 6 c10 -9 -45 -3 -59 6 -11 7 -5 8 20 4 19 -4 37 -8 39
-10z m647 -40 c48 -17 51 -24 60 -141 6 -74 5 -83 -10 -83 -9 0 -35 17 -57 38
-34 32 -42 48 -59 120 -11 46 -20 86 -20 88 0 6 28 -1 86 -22z m-229 -36 c-3
-8 -6 -5 -6 6 -1 11 2 17 5 13 3 -3 4 -12 1 -19z m494 -28 c45 0 47 -1 52 -32
2 -18 2 -61 -1 -95 l-5 -63 -48 0 c-26 0 -51 4 -54 10 -5 9 -35 164 -35 184 0
4 10 6 23 2 12 -3 43 -6 68 -6z m199 -25 c0 -17 -9 -29 -29 -39 -27 -15 -29
-14 -35 7 -13 48 -8 57 29 57 31 0 35 -3 35 -25z m-390 -252 c0 -27 4 -65 9
-86 7 -28 6 -37 -2 -34 -22 7 -38 167 -17 167 6 0 10 -21 10 -47z m80 -20 c0
-13 -4 -23 -10 -23 -5 0 -10 17 -10 38 0 27 3 33 10 22 5 -8 10 -25 10 -37z
m207 15 c-3 -8 -6 -5 -6 6 -1 11 2 17 5 13 3 -3 4 -12 1 -19z m-167 -22 c0 -3
-4 -8 -10 -11 -5 -3 -10 -1 -10 4 0 6 5 11 10 11 6 0 10 -2 10 -4z m35 -6 c3
-5 2 -10 -4 -10 -5 0 -13 5 -16 10 -3 6 -2 10 4 10 5 0 13 -4 16 -10z m-19
-77 c-11 -11 -19 6 -11 24 8 17 8 17 12 0 3 -10 2 -21 -1 -24z m72 30 c-9 -2
-19 -12 -21 -21 -3 -12 -5 -10 -6 6 -1 17 4 22 22 21 15 -1 17 -3 5 -6z m641
-37 c-3 -3 -11 5 -18 17 -13 21 -12 21 5 5 10 -10 16 -20 13 -22z m-976 17
c-7 -2 -21 -2 -30 0 -10 3 -4 5 12 5 17 0 24 -2 18 -5z m80 -106 c-5 -60 -8
-67 -27 -66 -17 1 -18 2 -3 6 14 4 17 16 17 69 l0 64 -57 2 -58 1 55 6 c75 9
81 1 73 -82z m127 8 c0 -57 -2 -65 -19 -65 -15 0 -19 10 -24 58 -5 65 -3 72
24 72 17 0 19 -7 19 -65z m77 -9 c-4 -9 -11 -16 -17 -16 -6 0 -9 4 -6 9 4 5 1
11 -5 13 -5 2 -7 11 -3 21 6 17 8 17 22 4 8 -9 12 -23 9 -31z m-340 -72 c-3
-3 -12 -4 -19 -1 -8 3 -5 6 6 6 11 1 17 -2 13 -5z m40 0 c-3 -3 -12 -4 -19 -1
-8 3 -5 6 6 6 11 1 17 -2 13 -5z m-117 -9 c0 -2 -10 -10 -22 -16 -21 -11 -22
-11 -9 4 13 16 31 23 31 12z m390 -45 c-11 -11 -20 -31 -20 -45 0 -21 -3 -23
-13 -14 -31 29 -12 79 29 79 l24 0 -20 -20z m-377 -25 c20 -29 12 -33 -15 -8
-23 20 -24 5 -1 -26 16 -24 16 -24 -10 -17 -25 6 -27 4 -27 -23 0 -23 -4 -29
-15 -25 -8 4 -15 1 -15 -6 0 -9 -7 -7 -20 5 -13 12 -20 30 -19 54 1 33 2 34 9
11 4 -14 8 -18 9 -10 1 18 57 70 75 70 6 0 19 -12 29 -25z m418 -11 c-5 -16
-10 -21 -10 -12 -1 18 10 51 15 45 2 -1 -1 -16 -5 -33z m-108 6 c-3 -11 -7
-20 -8 -20 -1 0 -5 9 -8 20 -3 12 0 20 8 20 8 0 11 -8 8 -20z m390 -22 c-6 -7
-13 -20 -16 -28 -3 -9 -6 -3 -6 13 -1 19 4 27 15 27 12 0 14 -4 7 -12z m-833
-51 c0 -12 7 -31 15 -41 8 -11 15 -27 15 -35 0 -14 -1 -14 -10 -1 -7 12 -11 8
-16 -17 -3 -17 -12 -34 -20 -37 -15 -6 -19 9 -5 18 12 8 3 42 -15 57 -19 15
-18 48 2 70 20 22 34 16 34 -14z m800 -70 c0 -7 -6 -19 -12 -25 -10 -10 -10
-17 0 -32 24 -38 6 -41 -35 -6 l-28 24 25 25 c28 28 50 34 50 14z"/>
<path d="M658 1040 c-4 -73 -2 -100 9 -118 8 -13 17 -21 20 -18 4 3 -1 14 -10
24 -17 19 -24 58 -9 48 4 -2 6 25 4 62 -5 104 -8 105 -14 2z"/>
<path d="M738 543 c7 -3 16 -2 19 1 4 3 -2 6 -13 5 -11 0 -14 -3 -6 -6z"/>
<path d="M610 480 c36 -11 52 -11 45 0 -3 6 -21 10 -38 9 -31 -1 -31 -1 -7 -9z"/>
<path d="M678 463 c7 -3 16 -2 19 1 4 3 -2 6 -13 5 -11 0 -14 -3 -6 -6z"/>
</g>
</svg>
